<?xml version="1.0" encoding="UTF-8" standalone="no"?>
<!DOCTYPE svg PUBLIC "-//W3C//DTD SVG 1.1//EN"
 "http://www.w3.org/Graphics/SVG/1.1/DTD/svg11.dtd">
<!-- Generated by graphviz version 2.43.0 (0)
 -->
<!-- Title: %3 Pages: 1 -->
<svg width="410pt" height="1440pt"
 viewBox="0.00 0.00 409.50 1440.00" xmlns="http://www.w3.org/2000/svg" xmlns:xlink="http://www.w3.org/1999/xlink">
<g id="graph0" class="graph" transform="scale(1 1) rotate(0) translate(4 1436)">
<title>%3</title>
<polygon fill="white" stroke="transparent" points="-4,4 -4,-1436 405.5,-1436 405.5,4 -4,4"/>
<!-- 13 -->
<g id="node1" class="node">
<title>13</title>
<g id="a_node1"><a xlink:title="/usr/local/lib/python3.10/dist&#45;packages/pluggy/_hooks.py">
<polygon fill="#ff0000" stroke="#ff0000" points="371,-880 265,-880 265,-828 371,-828 371,-880"/>
<text text-anchor="middle" x="318" y="-868" font-family="Arial" font-size="10.00" fill="#ffffff">_hooks:479:__call__</text>
<text text-anchor="middle" x="318" y="-857" font-family="Arial" font-size="10.00" fill="#ffffff">99.98%</text>
<text text-anchor="middle" x="318" y="-846" font-family="Arial" font-size="10.00" fill="#ffffff">(0.00%)</text>
<text text-anchor="middle" x="318" y="-835" font-family="Arial" font-size="10.00" fill="#ffffff">19×</text>
</a>
</g>
</g>
<!-- 389 -->
<g id="node2" class="node">
<title>389</title>
<g id="a_node2"><a xlink:title="/usr/local/lib/python3.10/dist&#45;packages/pluggy/_manager.py">
<polygon fill="#ff0000" stroke="#ff0000" points="342,-788 214,-788 214,-736 342,-736 342,-788"/>
<text text-anchor="middle" x="278" y="-776" font-family="Arial" font-size="10.00" fill="#ffffff">_manager:106:_hookexec</text>
<text text-anchor="middle" x="278" y="-765" font-family="Arial" font-size="10.00" fill="#ffffff">99.98%</text>
<text text-anchor="middle" x="278" y="-754" font-family="Arial" font-size="10.00" fill="#ffffff">(0.00%)</text>
<text text-anchor="middle" x="278" y="-743" font-family="Arial" font-size="10.00" fill="#ffffff">19×</text>
</a>
</g>
</g>
<!-- 13&#45;&gt;389 -->
<g id="edge1" class="edge">
<title>13&#45;&gt;389</title>
<path fill="none" stroke="#ff0000" stroke-width="4" d="M306.86,-827.93C302.69,-818.55 297.88,-807.72 293.39,-797.63"/>
<polygon fill="#ff0000" stroke="#ff0000" stroke-width="4" points="296.48,-795.96 289.22,-788.25 290.08,-798.81 296.48,-795.96"/>
<text text-anchor="middle" x="320" y="-811" font-family="Arial" font-size="10.00" fill="#ff0000">99.98%</text>
<text text-anchor="middle" x="320" y="-800" font-family="Arial" font-size="10.00" fill="#ff0000">13×</text>
</g>
<!-- 37 -->
<g id="node5" class="node">
<title>37</title>
<g id="a_node5"><a xlink:title="/usr/local/lib/python3.10/dist&#45;packages/pluggy/_callers.py">
<polygon fill="#ff0000" stroke="#ff0000" points="324,-696 216,-696 216,-644 324,-644 324,-696"/>
<text text-anchor="middle" x="270" y="-684" font-family="Arial" font-size="10.00" fill="#ffffff">_callers:27:_multicall</text>
<text text-anchor="middle" x="270" y="-673" font-family="Arial" font-size="10.00" fill="#ffffff">99.98%</text>
<text text-anchor="middle" x="270" y="-662" font-family="Arial" font-size="10.00" fill="#ffffff">(0.00%)</text>
<text text-anchor="middle" x="270" y="-651" font-family="Arial" font-size="10.00" fill="#ffffff">19×</text>
</a>
</g>
</g>
<!-- 389&#45;&gt;37 -->
<g id="edge18" class="edge">
<title>389&#45;&gt;37</title>
<path fill="none" stroke="#ff0000" stroke-width="4" d="M275.77,-735.93C274.95,-726.74 274.01,-716.17 273.13,-706.25"/>
<polygon fill="#ff0000" stroke="#ff0000" stroke-width="4" points="276.62,-705.9 272.24,-696.25 269.64,-706.52 276.62,-705.9"/>
<text text-anchor="middle" x="292" y="-719" font-family="Arial" font-size="10.00" fill="#ff0000">99.98%</text>
<text text-anchor="middle" x="292" y="-708" font-family="Arial" font-size="10.00" fill="#ff0000">13×</text>
</g>
<!-- 32 -->
<g id="node3" class="node">
<title>32</title>
<g id="a_node3"><a xlink:title="/usr/local/lib/python3.10/dist&#45;packages/_pytest/runner.py">
<polygon fill="#ff0000" stroke="#ff0000" points="383,-1340 253,-1340 253,-1288 383,-1288 383,-1340"/>
<text text-anchor="middle" x="318" y="-1328" font-family="Arial" font-size="10.00" fill="#ffffff">runner:119:runtestprotocol</text>
<text text-anchor="middle" x="318" y="-1317" font-family="Arial" font-size="10.00" fill="#ffffff">99.98%</text>
<text text-anchor="middle" x="318" y="-1306" font-family="Arial" font-size="10.00" fill="#ffffff">(0.00%)</text>
<text text-anchor="middle" x="318" y="-1295" font-family="Arial" font-size="10.00" fill="#ffffff">1×</text>
</a>
</g>
</g>
<!-- 270 -->
<g id="node4" class="node">
<title>270</title>
<g id="a_node4"><a xlink:title="/usr/local/lib/python3.10/dist&#45;packages/_pytest/runner.py">
<polygon fill="#ff0000" stroke="#ff0000" points="383.5,-1248 252.5,-1248 252.5,-1196 383.5,-1196 383.5,-1248"/>
<text text-anchor="middle" x="318" y="-1236" font-family="Arial" font-size="10.00" fill="#ffffff">runner:219:call_and_report</text>
<text text-anchor="middle" x="318" y="-1225" font-family="Arial" font-size="10.00" fill="#ffffff">99.98%</text>
<text text-anchor="middle" x="318" y="-1214" font-family="Arial" font-size="10.00" fill="#ffffff">(0.00%)</text>
<text text-anchor="middle" x="318" y="-1203" font-family="Arial" font-size="10.00" fill="#ffffff">3×</text>
</a>
</g>
</g>
<!-- 32&#45;&gt;270 -->
<g id="edge2" class="edge">
<title>32&#45;&gt;270</title>
<path fill="none" stroke="#ff0000" stroke-width="4" d="M318,-1287.93C318,-1278.74 318,-1268.17 318,-1258.25"/>
<polygon fill="#ff0000" stroke="#ff0000" stroke-width="4" points="321.5,-1258.25 318,-1248.25 314.5,-1258.25 321.5,-1258.25"/>
<text text-anchor="middle" x="335" y="-1271" font-family="Arial" font-size="10.00" fill="#ff0000">99.98%</text>
<text text-anchor="middle" x="335" y="-1260" font-family="Arial" font-size="10.00" fill="#ff0000">3×</text>
</g>
<!-- 271 -->
<g id="node17" class="node">
<title>271</title>
<g id="a_node17"><a xlink:title="/usr/local/lib/python3.10/dist&#45;packages/_pytest/runner.py">
<polygon fill="#ff0000" stroke="#ff0000" points="389,-1156 247,-1156 247,-1104 389,-1104 389,-1156"/>
<text text-anchor="middle" x="318" y="-1144" font-family="Arial" font-size="10.00" fill="#ffffff">runner:247:call_runtest_hook</text>
<text text-anchor="middle" x="318" y="-1133" font-family="Arial" font-size="10.00" fill="#ffffff">99.97%</text>
<text text-anchor="middle" x="318" y="-1122" font-family="Arial" font-size="10.00" fill="#ffffff">(0.00%)</text>
<text text-anchor="middle" x="318" y="-1111" font-family="Arial" font-size="10.00" fill="#ffffff">3×</text>
</a>
</g>
</g>
<!-- 270&#45;&gt;271 -->
<g id="edge12" class="edge">
<title>270&#45;&gt;271</title>
<path fill="none" stroke="#ff0000" stroke-width="4" d="M318,-1195.93C318,-1186.74 318,-1176.17 318,-1166.25"/>
<polygon fill="#ff0000" stroke="#ff0000" stroke-width="4" points="321.5,-1166.25 318,-1156.25 314.5,-1166.25 321.5,-1166.25"/>
<text text-anchor="middle" x="335" y="-1179" font-family="Arial" font-size="10.00" fill="#ff0000">99.97%</text>
<text text-anchor="middle" x="335" y="-1168" font-family="Arial" font-size="10.00" fill="#ff0000">3×</text>
</g>
<!-- 94 -->
<g id="node6" class="node">
<title>94</title>
<g id="a_node6"><a xlink:title="/usr/local/lib/python3.10/dist&#45;packages/_pytest/python.py">
<polygon fill="#ff0100" stroke="#ff0100" points="186.5,-604 37.5,-604 37.5,-552 186.5,-552 186.5,-604"/>
<text text-anchor="middle" x="112" y="-592" font-family="Arial" font-size="10.00" fill="#ffffff">python:187:pytest_pyfunc_call</text>
<text text-anchor="middle" x="112" y="-581" font-family="Arial" font-size="10.00" fill="#ffffff">99.93%</text>
<text text-anchor="middle" x="112" y="-570" font-family="Arial" font-size="10.00" fill="#ffffff">(0.00%)</text>
<text text-anchor="middle" x="112" y="-559" font-family="Arial" font-size="10.00" fill="#ffffff">1×</text>
</a>
</g>
</g>
<!-- 37&#45;&gt;94 -->
<g id="edge3" class="edge">
<title>37&#45;&gt;94</title>
<path fill="none" stroke="#ff0100" stroke-width="4" d="M225.99,-643.93C207.06,-633.15 184.78,-620.46 164.96,-609.17"/>
<polygon fill="#ff0100" stroke="#ff0100" stroke-width="4" points="166.47,-606 156.05,-604.09 163.01,-612.08 166.47,-606"/>
<text text-anchor="middle" x="227" y="-627" font-family="Arial" font-size="10.00" fill="#ff0100">99.93%</text>
<text text-anchor="middle" x="227" y="-616" font-family="Arial" font-size="10.00" fill="#ff0100">1×</text>
</g>
<!-- 331 -->
<g id="node7" class="node">
<title>331</title>
<g id="a_node7"><a xlink:title="/usr/local/lib/python3.10/dist&#45;packages/_pytest/runner.py">
<polygon fill="#ff0100" stroke="#ff0100" points="344,-604 196,-604 196,-552 344,-552 344,-604"/>
<text text-anchor="middle" x="270" y="-592" font-family="Arial" font-size="10.00" fill="#ffffff">runner:160:pytest_runtest_call</text>
<text text-anchor="middle" x="270" y="-581" font-family="Arial" font-size="10.00" fill="#ffffff">99.93%</text>
<text text-anchor="middle" x="270" y="-570" font-family="Arial" font-size="10.00" fill="#ffffff">(0.00%)</text>
<text text-anchor="middle" x="270" y="-559" font-family="Arial" font-size="10.00" fill="#ffffff">1×</text>
</a>
</g>
</g>
<!-- 37&#45;&gt;331 -->
<g id="edge4" class="edge">
<title>37&#45;&gt;331</title>
<path fill="none" stroke="#ff0100" stroke-width="4" d="M270,-643.93C270,-634.74 270,-624.17 270,-614.25"/>
<polygon fill="#ff0100" stroke="#ff0100" stroke-width="4" points="273.5,-614.25 270,-604.25 266.5,-614.25 273.5,-614.25"/>
<text text-anchor="middle" x="287" y="-627" font-family="Arial" font-size="10.00" fill="#ff0100">99.93%</text>
<text text-anchor="middle" x="287" y="-616" font-family="Arial" font-size="10.00" fill="#ff0100">1×</text>
</g>
<!-- 204 -->
<g id="node8" class="node">
<title>204</title>
<g id="a_node8"><a xlink:title="/app/protocol_test.py">
<polygon fill="#ff0100" stroke="#ff0100" points="179,-512 45,-512 45,-460 179,-460 179,-512"/>
<text text-anchor="middle" x="112" y="-500" font-family="Arial" font-size="10.00" fill="#ffffff">protocol_test:60:test_basic</text>
<text text-anchor="middle" x="112" y="-489" font-family="Arial" font-size="10.00" fill="#ffffff">99.93%</text>
<text text-anchor="middle" x="112" y="-478" font-family="Arial" font-size="10.00" fill="#ffffff">(0.00%)</text>
<text text-anchor="middle" x="112" y="-467" font-family="Arial" font-size="10.00" fill="#ffffff">1×</text>
</a>
</g>
</g>
<!-- 94&#45;&gt;204 -->
<g id="edge5" class="edge">
<title>94&#45;&gt;204</title>
<path fill="none" stroke="#ff0100" stroke-width="4" d="M112,-551.93C112,-542.74 112,-532.17 112,-522.25"/>
<polygon fill="#ff0100" stroke="#ff0100" stroke-width="4" points="115.5,-522.25 112,-512.25 108.5,-522.25 115.5,-522.25"/>
<text text-anchor="middle" x="129" y="-535" font-family="Arial" font-size="10.00" fill="#ff0100">99.93%</text>
<text text-anchor="middle" x="129" y="-524" font-family="Arial" font-size="10.00" fill="#ff0100">1×</text>
</g>
<!-- 272 -->
<g id="node18" class="node">
<title>272</title>
<g id="a_node18"><a xlink:title="/usr/local/lib/python3.10/dist&#45;packages/_pytest/python.py">
<polygon fill="#ff0100" stroke="#ff0100" points="376.5,-512 273.5,-512 273.5,-460 376.5,-460 376.5,-512"/>
<text text-anchor="middle" x="325" y="-500" font-family="Arial" font-size="10.00" fill="#ffffff">python:1790:runtest</text>
<text text-anchor="middle" x="325" y="-489" font-family="Arial" font-size="10.00" fill="#ffffff">99.93%</text>
<text text-anchor="middle" x="325" y="-478" font-family="Arial" font-size="10.00" fill="#ffffff">(0.00%)</text>
<text text-anchor="middle" x="325" y="-467" font-family="Arial" font-size="10.00" fill="#ffffff">1×</text>
</a>
</g>
</g>
<!-- 331&#45;&gt;272 -->
<g id="edge15" class="edge">
<title>331&#45;&gt;272</title>
<path fill="none" stroke="#ff0100" stroke-width="4" d="M285.32,-551.93C291.17,-542.36 297.94,-531.27 304.22,-521"/>
<polygon fill="#ff0100" stroke="#ff0100" stroke-width="4" points="307.34,-522.61 309.57,-512.25 301.37,-518.96 307.34,-522.61"/>
<text text-anchor="middle" x="322" y="-535" font-family="Arial" font-size="10.00" fill="#ff0100">99.93%</text>
<text text-anchor="middle" x="322" y="-524" font-family="Arial" font-size="10.00" fill="#ff0100">1×</text>
</g>
<!-- 203 -->
<g id="node13" class="node">
<title>203</title>
<g id="a_node13"><a xlink:title="/app/protocol_test.py">
<polygon fill="#ff0100" stroke="#ff0100" points="187.5,-420 36.5,-420 36.5,-368 187.5,-368 187.5,-420"/>
<text text-anchor="middle" x="112" y="-408" font-family="Arial" font-size="10.00" fill="#ffffff">protocol_test:22:run_echo_test</text>
<text text-anchor="middle" x="112" y="-397" font-family="Arial" font-size="10.00" fill="#ffffff">99.89%</text>
<text text-anchor="middle" x="112" y="-386" font-family="Arial" font-size="10.00" fill="#ffffff">(0.00%)</text>
<text text-anchor="middle" x="112" y="-375" font-family="Arial" font-size="10.00" fill="#ffffff">1×</text>
</a>
</g>
</g>
<!-- 204&#45;&gt;203 -->
<g id="edge9" class="edge">
<title>204&#45;&gt;203</title>
<path fill="none" stroke="#ff0100" stroke-width="4" d="M112,-459.93C112,-450.74 112,-440.17 112,-430.25"/>
<polygon fill="#ff0100" stroke="#ff0100" stroke-width="4" points="115.5,-430.25 112,-420.25 108.5,-430.25 115.5,-430.25"/>
<text text-anchor="middle" x="129" y="-443" font-family="Arial" font-size="10.00" fill="#ff0100">99.89%</text>
<text text-anchor="middle" x="129" y="-432" font-family="Arial" font-size="10.00" fill="#ff0100">1×</text>
</g>
<!-- 138 -->
<g id="node9" class="node">
<title>138</title>
<g id="a_node9"><a xlink:title="~">
<polygon fill="#ff0100" stroke="#ff0100" points="224,-52 0,-52 0,0 224,0 224,-52"/>
<text text-anchor="middle" x="112" y="-40" font-family="Arial" font-size="10.00" fill="#ffffff">~:0:&lt;method &#39;acquire&#39; of &#39;_thread.lock&#39; objects&gt;</text>
<text text-anchor="middle" x="112" y="-29" font-family="Arial" font-size="10.00" fill="#ffffff">99.87%</text>
<text text-anchor="middle" x="112" y="-18" font-family="Arial" font-size="10.00" fill="#ffffff">(99.87%)</text>
<text text-anchor="middle" x="112" y="-7" font-family="Arial" font-size="10.00" fill="#ffffff">20×</text>
</a>
</g>
</g>
<!-- 142 -->
<g id="node10" class="node">
<title>142</title>
<g id="a_node10"><a xlink:title="/usr/lib/python3.10/threading.py">
<polygon fill="#ff0200" stroke="#ff0200" points="200,-144 24,-144 24,-92 200,-92 200,-144"/>
<text text-anchor="middle" x="112" y="-132" font-family="Arial" font-size="10.00" fill="#ffffff">threading:1102:_wait_for_tstate_lock</text>
<text text-anchor="middle" x="112" y="-121" font-family="Arial" font-size="10.00" fill="#ffffff">99.83%</text>
<text text-anchor="middle" x="112" y="-110" font-family="Arial" font-size="10.00" fill="#ffffff">(0.00%)</text>
<text text-anchor="middle" x="112" y="-99" font-family="Arial" font-size="10.00" fill="#ffffff">2×</text>
</a>
</g>
</g>
<!-- 142&#45;&gt;138 -->
<g id="edge6" class="edge">
<title>142&#45;&gt;138</title>
<path fill="none" stroke="#ff0200" stroke-width="3.99" d="M112,-91.93C112,-82.74 112,-72.17 112,-62.25"/>
<polygon fill="#ff0200" stroke="#ff0200" stroke-width="3.99" points="115.5,-62.25 112,-52.25 108.5,-62.25 115.5,-62.25"/>
<text text-anchor="middle" x="129" y="-75" font-family="Arial" font-size="10.00" fill="#ff0200">99.83%</text>
<text text-anchor="middle" x="129" y="-64" font-family="Arial" font-size="10.00" fill="#ff0200">2×</text>
</g>
<!-- 184 -->
<g id="node11" class="node">
<title>184</title>
<g id="a_node11"><a xlink:title="/usr/local/lib/python3.10/dist&#45;packages/_pytest/runner.py">
<polygon fill="#ff0000" stroke="#ff0000" points="370.5,-1064 265.5,-1064 265.5,-1012 370.5,-1012 370.5,-1064"/>
<text text-anchor="middle" x="318" y="-1052" font-family="Arial" font-size="10.00" fill="#ffffff">runner:318:from_call</text>
<text text-anchor="middle" x="318" y="-1041" font-family="Arial" font-size="10.00" fill="#ffffff">99.97%</text>
<text text-anchor="middle" x="318" y="-1030" font-family="Arial" font-size="10.00" fill="#ffffff">(0.00%)</text>
<text text-anchor="middle" x="318" y="-1019" font-family="Arial" font-size="10.00" fill="#ffffff">3×</text>
</a>
</g>
</g>
<!-- 334 -->
<g id="node12" class="node">
<title>334</title>
<g id="a_node12"><a xlink:title="/usr/local/lib/python3.10/dist&#45;packages/_pytest/runner.py">
<polygon fill="#ff0000" stroke="#ff0000" points="372.5,-972 263.5,-972 263.5,-920 372.5,-920 372.5,-972"/>
<text text-anchor="middle" x="318" y="-960" font-family="Arial" font-size="10.00" fill="#ffffff">runner:262:&lt;lambda&gt;</text>
<text text-anchor="middle" x="318" y="-949" font-family="Arial" font-size="10.00" fill="#ffffff">99.97%</text>
<text text-anchor="middle" x="318" y="-938" font-family="Arial" font-size="10.00" fill="#ffffff">(0.00%)</text>
<text text-anchor="middle" x="318" y="-927" font-family="Arial" font-size="10.00" fill="#ffffff">3×</text>
</a>
</g>
</g>
<!-- 184&#45;&gt;334 -->
<g id="edge7" class="edge">
<title>184&#45;&gt;334</title>
<path fill="none" stroke="#ff0000" stroke-width="4" d="M318,-1011.93C318,-1002.74 318,-992.17 318,-982.25"/>
<polygon fill="#ff0000" stroke="#ff0000" stroke-width="4" points="321.5,-982.25 318,-972.25 314.5,-982.25 321.5,-982.25"/>
<text text-anchor="middle" x="335" y="-995" font-family="Arial" font-size="10.00" fill="#ff0000">99.97%</text>
<text text-anchor="middle" x="335" y="-984" font-family="Arial" font-size="10.00" fill="#ff0000">3×</text>
</g>
<!-- 334&#45;&gt;13 -->
<g id="edge16" class="edge">
<title>334&#45;&gt;13</title>
<path fill="none" stroke="#ff0000" stroke-width="4" d="M318,-919.93C318,-910.74 318,-900.17 318,-890.25"/>
<polygon fill="#ff0000" stroke="#ff0000" stroke-width="4" points="321.5,-890.25 318,-880.25 314.5,-890.25 321.5,-890.25"/>
<text text-anchor="middle" x="335" y="-903" font-family="Arial" font-size="10.00" fill="#ff0000">99.97%</text>
<text text-anchor="middle" x="335" y="-892" font-family="Arial" font-size="10.00" fill="#ff0000">3×</text>
</g>
<!-- 206 -->
<g id="node14" class="node">
<title>206</title>
<g id="a_node14"><a xlink:title="/app/testable_thread.py">
<polygon fill="#ff0200" stroke="#ff0200" points="169.5,-328 54.5,-328 54.5,-276 169.5,-276 169.5,-328"/>
<text text-anchor="middle" x="112" y="-316" font-family="Arial" font-size="10.00" fill="#ffffff">testable_thread:22:join</text>
<text text-anchor="middle" x="112" y="-305" font-family="Arial" font-size="10.00" fill="#ffffff">99.83%</text>
<text text-anchor="middle" x="112" y="-294" font-family="Arial" font-size="10.00" fill="#ffffff">(0.00%)</text>
<text text-anchor="middle" x="112" y="-283" font-family="Arial" font-size="10.00" fill="#ffffff">2×</text>
</a>
</g>
</g>
<!-- 203&#45;&gt;206 -->
<g id="edge8" class="edge">
<title>203&#45;&gt;206</title>
<path fill="none" stroke="#ff0200" stroke-width="3.99" d="M112,-367.93C112,-358.74 112,-348.17 112,-338.25"/>
<polygon fill="#ff0200" stroke="#ff0200" stroke-width="3.99" points="115.5,-338.25 112,-328.25 108.5,-338.25 115.5,-338.25"/>
<text text-anchor="middle" x="129" y="-351" font-family="Arial" font-size="10.00" fill="#ff0200">99.83%</text>
<text text-anchor="middle" x="129" y="-340" font-family="Arial" font-size="10.00" fill="#ff0200">2×</text>
</g>
<!-- 374 -->
<g id="node15" class="node">
<title>374</title>
<g id="a_node15"><a xlink:title="/usr/lib/python3.10/threading.py">
<polygon fill="#ff0200" stroke="#ff0200" points="161,-236 63,-236 63,-184 161,-184 161,-236"/>
<text text-anchor="middle" x="112" y="-224" font-family="Arial" font-size="10.00" fill="#ffffff">threading:1064:join</text>
<text text-anchor="middle" x="112" y="-213" font-family="Arial" font-size="10.00" fill="#ffffff">99.83%</text>
<text text-anchor="middle" x="112" y="-202" font-family="Arial" font-size="10.00" fill="#ffffff">(0.00%)</text>
<text text-anchor="middle" x="112" y="-191" font-family="Arial" font-size="10.00" fill="#ffffff">2×</text>
</a>
</g>
</g>
<!-- 206&#45;&gt;374 -->
<g id="edge10" class="edge">
<title>206&#45;&gt;374</title>
<path fill="none" stroke="#ff0200" stroke-width="3.99" d="M112,-275.93C112,-266.74 112,-256.17 112,-246.25"/>
<polygon fill="#ff0200" stroke="#ff0200" stroke-width="3.99" points="115.5,-246.25 112,-236.25 108.5,-246.25 115.5,-246.25"/>
<text text-anchor="middle" x="129" y="-259" font-family="Arial" font-size="10.00" fill="#ff0200">99.83%</text>
<text text-anchor="middle" x="129" y="-248" font-family="Arial" font-size="10.00" fill="#ff0200">2×</text>
</g>
<!-- 374&#45;&gt;142 -->
<g id="edge17" class="edge">
<title>374&#45;&gt;142</title>
<path fill="none" stroke="#ff0200" stroke-width="3.99" d="M112,-183.93C112,-174.74 112,-164.17 112,-154.25"/>
<polygon fill="#ff0200" stroke="#ff0200" stroke-width="3.99" points="115.5,-154.25 112,-144.25 108.5,-154.25 115.5,-154.25"/>
<text text-anchor="middle" x="129" y="-167" font-family="Arial" font-size="10.00" fill="#ff0200">99.83%</text>
<text text-anchor="middle" x="129" y="-156" font-family="Arial" font-size="10.00" fill="#ff0200">2×</text>
</g>
<!-- 269 -->
<g id="node16" class="node">
<title>269</title>
<g id="a_node16"><a xlink:title="/usr/local/lib/python3.10/dist&#45;packages/_pytest/runner.py">
<polygon fill="#ff0000" stroke="#ff0000" points="401.5,-1432 234.5,-1432 234.5,-1380 401.5,-1380 401.5,-1432"/>
<text text-anchor="middle" x="318" y="-1420" font-family="Arial" font-size="10.00" fill="#ffffff">runner:111:pytest_runtest_protocol</text>
<text text-anchor="middle" x="318" y="-1409" font-family="Arial" font-size="10.00" fill="#ffffff">99.99%</text>
<text text-anchor="middle" x="318" y="-1398" font-family="Arial" font-size="10.00" fill="#ffffff">(0.00%)</text>
<text text-anchor="middle" x="318" y="-1387" font-family="Arial" font-size="10.00" fill="#ffffff">1×</text>
</a>
</g>
</g>
<!-- 269&#45;&gt;32 -->
<g id="edge11" class="edge">
<title>269&#45;&gt;32</title>
<path fill="none" stroke="#ff0000" stroke-width="4" d="M318,-1379.93C318,-1370.74 318,-1360.17 318,-1350.25"/>
<polygon fill="#ff0000" stroke="#ff0000" stroke-width="4" points="321.5,-1350.25 318,-1340.25 314.5,-1350.25 321.5,-1350.25"/>
<text text-anchor="middle" x="335" y="-1363" font-family="Arial" font-size="10.00" fill="#ff0000">99.98%</text>
<text text-anchor="middle" x="335" y="-1352" font-family="Arial" font-size="10.00" fill="#ff0000">1×</text>
</g>
<!-- 271&#45;&gt;184 -->
<g id="edge13" class="edge">
<title>271&#45;&gt;184</title>
<path fill="none" stroke="#ff0000" stroke-width="4" d="M318,-1103.93C318,-1094.74 318,-1084.17 318,-1074.25"/>
<polygon fill="#ff0000" stroke="#ff0000" stroke-width="4" points="321.5,-1074.25 318,-1064.25 314.5,-1074.25 321.5,-1074.25"/>
<text text-anchor="middle" x="335" y="-1087" font-family="Arial" font-size="10.00" fill="#ff0000">99.97%</text>
<text text-anchor="middle" x="335" y="-1076" font-family="Arial" font-size="10.00" fill="#ff0000">3×</text>
</g>
<!-- 272&#45;&gt;13 -->
<g id="edge14" class="edge">
<title>272&#45;&gt;13</title>
<path fill="none" stroke="#ff0100" stroke-width="4" d="M339.57,-512.1C348.41,-529.68 358,-554.03 358,-577 358,-763 358,-763 358,-763 358,-782.58 349.99,-802.66 341.15,-818.86"/>
<polygon fill="#ff0100" stroke="#ff0100" stroke-width="4" points="337.88,-817.52 335.89,-827.92 343.94,-821.03 337.88,-817.52"/>
<text text-anchor="middle" x="375" y="-673" font-family="Arial" font-size="10.00" fill="#ff0100">99.93%</text>
<text text-anchor="middle" x="375" y="-662" font-family="Arial" font-size="10.00" fill="#ff0100">1×</text>
</g>
</g>
</svg>
